# AST/ASF file generated using VICON BodyLanguage
# -----------------------------------------------
:version 1.10
:name VICON
:units
  mass 1.0
  length 0.45
  angle deg
:documentation
   .ast/.asf automatically generated from VICON data using
   VICON BodyBuilder and BodyLanguage model FoxedUp or BRILLIANT.MOD
:root
   order TX TY TZ RX RY RZ
   axis XYZ
   position 0 0 0  
   orientation 0 0 0 
:bonedata
  begin
     id 1 
     name lhipjoint
     direction 0.822369 -0.411937 0.392449 
     length 3.8167 
     axis 0 0 0  XYZ
  end
  begin
     id 2 
     name lfemur
     direction 0.34202 -0.939693 0  
     length 6.16791  
     axis 0 0 20  XYZ
    dof rx ry rz
    limits (-160.0 20.0)
           (-70.0 70.0)
           (-60.0 70.0)
  end
  begin
     id 3 
     name ltibia
     direction 0.34202 -0.939693 0   
     length 7.07101   
     axis 0 0 20   XYZ
    dof rx
    limits (-10.0 170.0)
  end
  begin
     id 4 
     name lfoot
     direction 0.028254 -0.0776273 0.996582   
     length 1.66799   
     axis -90 7.62852e-016 20   XYZ
    dof rx rz
    limits (-45.0 90.0)
           (-70.0 20.0)
  end
  begin
     id 5 
     name ltoes
     direction 1.53483e-011 -4.21688e-011 1   
     length 0.851674   
     axis -90 7.62852e-016 20   XYZ
    dof rx
    limits (-90.0 20.0)
  end
  begin
     id 6 
     name rhipjoint
     direction -0.822466 -0.411836 0.392353   
     length 3.81764  
     axis 0 0 0  XYZ 
  end
  begin
     id 7 
     name rfemur
     direction -0.34202 -0.939693 0   
     length 6.28636   
     axis 0 0 -20   XYZ
    dof rx ry rz
    limits (-160.0 20.0)
           (-70.0 70.0)
           (-70.0 60.0)
  end
  begin
     id 8 
     name rtibia
     direction -0.34202 -0.939693 0   
     length 6.85621   
     axis 0 0 -20   XYZ
    dof rx
    limits (-10.0 170.0)
 end
 begin
     id 9 
     name rfoot
     direction -0.0553036 -0.151945 0.98684   
     length 1.57293  
     axis -90 -7.62852e-016 -20   XYZ
    dof rx rz
    limits (-45.0 90.0)
           (-20.0 70.0)
  end
  begin
     id 10 
     name rtoes
     direction -1.53592e-011 -4.21964e-011 1   
     length 0.802812   
     axis -90 -7.62852e-016 -20   XYZ
    dof rx
    limits (-90.0 20.0)
  end
  begin
     id 11 
     name lowerback
     direction 0.00654913 0.996475 -0.0836396   
     length 1.97212   
     axis 0 0 0   XYZ
    dof rx ry rz
    limits (-20.0 45.0)
           (-30.0 30.0)
           (-30.0 30.0)
  end
  begin
     id 12 
     name upperback
     direction 0.0111875 0.994527 0.103877   
     length 1.89704   
     axis 0 0 0   XYZ
    dof rx ry rz
    limits (-20.0 45.0)
           (-30.0 30.0)
           (-30.0 30.0)
  end
  begin
     id 13 
     name thorax
     direction 0.00473652 0.989004 0.147814   
     length 1.94516   
     axis 0 0 0   XYZ
    dof rx ry rz
    limits (-20.0 45.0)
           (-30.0 30.0)
           (-30.0 30.0)
  end
  begin
     id 14 
     name lowerneck
     direction -0.00925808 0.999011 0.0434791   
     length 1.81771   
     axis 0 0 0   XYZ
    dof rx ry rz
    limits (-20.0 45.0)
           (-30.0 30.0)
           (-30.0 30.0)
  end
  begin
     id 15 
     name upperneck
     direction 0.00451595 0.964412 -0.264365   
     length 1.80434   
     axis 0 0 0   XYZ
    dof rx ry rz
    limits (-20.0 45.0)
           (-30.0 30.0)
           (-30.0 30.0)
  end
  begin
     id 16
     name head
     direction -0.00110849 0.995756 -0.0920241  
     length 1.84006  
     axis 0 0 0   XYZ
    dof rx ry rz
    limits (-20.0 45.0)
           (-30.0 30.0)
           (-30.0 30.0)
  end
  begin
     id 17 
     name lclavicle
     direction 0.921253 0.385213 0.0538957  
     length 3.67415  
     axis 0 0 0   XYZ
    dof ry rz
    limits (-20.0 10.0)
           (0.0 20.0)
  end
  begin
     id 18 
     name lhumerus
     direction 1 -4.48961e-011 6.73441e-028   
     length 4.32712   
     axis 180 -30 -90   XYZ
    dof rx ry rz
    limits (-60.0 90.0)
           (-90.0 90.0)
           (-90.0 90.0)
  end
  begin
     id 19
     name lradius
     direction 1 -4.48985e-011 -9.53507e-028   
     length 3.28587   
     axis 180 -30 -90   XYZ
    dof rx
    limits (-10.0 170.0)
  end
  begin
     id 20
     name lwrist
     direction 1 -4.48951e-011 -4.67472e-027   
     length 1.64293   
     axis 1.65735e-015 90 90   XYZ
    dof ry
    limits (-180.0 0.0)
 end
  begin
     id 21 
     name lhand
     direction 1 -4.48946e-011 -9.34945e-027   
     length 0.433158   
     axis 5.96574e-015 90 90   XYZ
    dof rx rz
    limits (-90.0 90.0)
           (-45.0 45.0)
  end
  begin
     id 22 
     name lfingers
     direction 1 -4.48882e-011 -1.86989e-026   
     length 0.349224   
     axis 1.19315e-014 90 90   XYZ
    dof rx
    limits (0.0 90.0)
  end
  begin
     id 23
     name lthumb
     direction 0.707107 -6.3493e-011 0.707107   
     length 0.501417   
     axis -90 45 2.85299e-015   XYZ
    dof rx rz
    limits (-45.0 45.0)
           (-45.0 45.0)
  end
  begin
     id 24 
     name rclavicle
     direction -0.884378 0.46502 -0.0403866   
     length 3.50218  
     axis 0 0 0   XYZ 
    dof ry rz
    limits (-10.0 20.0)
           (-20.0 0.0)
  end
  begin
     id 25 
     name rhumerus
     direction -1 -4.48964e-011 1.58188e-027  
     length 4.29104   
     axis 180 30 90   XYZ
    dof rx ry rz
    limits (-90.0 60.0)
           (-90.0 90.0)
           (-90.0 90.0)
  end
  begin
     id 26 
     name rradius
     direction -1 -4.48978e-011 -1.9722e-027   
     length 3.2272   
     axis 180 30 90   XYZ
    dof rx
    limits (-10.0 170.0)
  end
  begin
     id 27 
     name rwrist
     direction -1 -4.48969e-011 -4.67472e-027   
     length 1.6136   
     axis 1.65735e-015 -90 -90   XYZ
    dof ry
    limits (-180.0 0.0)
  end
  begin
     id 28
     name rhand
     direction -1 -4.48846e-011 -9.34945e-027   
     length 0.543623   
     axis 5.96574e-015 -90 -90   XYZ
    dof rx rz
    limits (-90.0 90.0)
           (-45.0 45.0)
  end
  begin
     id 29
     name rfingers
     direction -1 -4.49074e-011 -1.86989e-026   
     length 0.438283   
     axis 1.19315e-014 -90 -90   XYZ
    dof rx
    limits (0.0 90.0)
  end
  begin
     id 30
     name rthumb
     direction -0.707107 -6.34834e-011 0.707107   
     length 0.629289   
     axis -90 -45 -2.85299e-015   XYZ
    dof rx rz
    limits (-45.0 45.0)
           (-45.0 45.0)
  end
:hierarchy
  begin
    root lhipjoint rhipjoint lowerback
    lhipjoint lfemur
    lfemur ltibia
    ltibia lfoot
    lfoot ltoes
    rhipjoint rfemur
    rfemur rtibia
    rtibia rfoot
    rfoot rtoes
    lowerback upperback
    upperback thorax
    thorax lowerneck lclavicle rclavicle
    lowerneck upperneck
    upperneck head
    lclavicle lhumerus
    lhumerus lradius
    lradius lwrist
    lwrist lhand lthumb
    lhand lfingers
    rclavicle rhumerus
    rhumerus rradius
    rradius rwrist
    rwrist rhand rthumb
    rhand rfingers
  end

#!OML:ASF H:\GeneralSubjects\Female5\Project 1\Capture day 1\Session 1\Female5.ASF
:FULLY-SPECIFIED
:DEGREES
66
root -30.3811 15.915 -2.83687 -125.186 79.0447 -137.007
lowerback 9.62752 0.770351 7.05359
upperback -8.84673 3.08917 3.80616
thorax -15.2481 1.09812 -0.402988
lowerneck -22.4903 -4.46795 -2.08459
upperneck 33.793 -3.45841 -4.15161
head 15.6931 -2.06101 -2.02169
rclavicle -3.90115e-015 3.49861e-014
rhumerus -45.5432 15.802 -77.3988
rradius 29.1697
rwrist -10.7861
rhand -21.7184 -23.2183
rfingers 7.12502
rthumb 4.6807 -53.1466
lclavicle -3.90115e-015 3.49861e-014
lhumerus -41.5977 7.03037 77.5777
lradius 36.9725
lwrist -2.56903
lhand -26.1841 29.7516
lfingers 7.12502
lthumb 0.367959 59.731
rfemur -3.32701 13.3366 38.8496
rtibia -4.97999
rfoot -21.0623 -24.2029
rtoes -16.1085
lfemur -38.0893 4.20835 -16.3321
ltibia 54.2923
lfoot 3.09571 28.7161
ltoes -69.8932
67
root -30.1492 15.893 -2.87828 -124.949 78.3604 -136.81
lowerback 9.68518 0.766658 7.4921
upperback -8.79715 3.20191 4.01943
thorax -15.2227 1.12608 -0.433733
lowerneck -22.4557 -4.68155 -2.31244
upperneck 33.6399 -3.56908 -4.46379
head 15.6114 -2.18642 -2.13125
rclavicle -6.4605e-015 -4.92986e-014
rhumerus -44.438 16.5397 -77.4102
rradius 29.391
rwrist -11.3213
rhand -21.6698 -24.036
rfingers 7.12502
rthumb 4.72759 -53.9632
lclavicle -6.4605e-015 -4.92986e-014
lhumerus -41.8924 7.30645 77.5399
lradius 36.9048
lwrist -3.41855
lhand -25.6346 27.4996
lfingers 7.12502
lthumb 0.898648 57.4775
rfemur -2.04336 13.5787 39.6023
rtibia -5.63629
rfoot -21.1196 -24.8398
rtoes -18.1957
lfemur -40.3863 2.87905 -15.2408
ltibia 50.608
lfoot 4.36887 30.0792
ltoes -69.6319
68
root -29.9068 15.8693 -2.92132 -124.569 77.7533 -136.528
lowerback 9.6353 0.788863 7.81446
upperback -8.81874 3.32822 4.22365
thorax -15.2178 1.17314 -0.409907
lowerneck -22.2717 -4.89635 -2.52615
upperneck 33.4917 -3.67263 -4.81681
head 15.4972 -2.3099 -2.25279
rclavicle -1.37161e-014 3.18055e-015
rhumerus -43.587 17.1147 -77.3983
rradius 29.8251
rwrist -11.3709
rhand -21.4412 -24.7446
rfingers 7.12502
rthumb 4.94835 -54.6668
lclavicle -1.37161e-014 3.18055e-015
lhumerus -42.3083 7.59413 77.4922
lradius 36.6157
lwrist -4.44681
lhand -24.6333 28.1302
lfingers 7.12502
lthumb 1.86569 58.1018
rfemur -0.688321 14.4376 40.3745
rtibia -6.38037
rfoot -22.1943 -25.7765
rtoes -17.8449
lfemur -42.1924 1.38398 -13.9152
ltibia 46.1283
lfoot 6.63767 31.7992
ltoes -69.1331
69
root -29.6548 15.8433 -2.96682 -124.021 77.2212 -136.063
lowerback 9.56033 0.837359 8.06208
upperback -8.85385 3.47504 4.41807
thorax -15.2138 1.23722 -0.359131
lowerneck -21.9656 -5.08063 -3.09905
upperneck 33.3126 -3.77249 -4.69417
head 15.3667 -2.40626 -2.10575
rclavicle 7.8023e-015 -6.36111e-015
rhumerus -43.1141 17.8087 -77.5431
rradius 30.6696
rwrist -11.2938
rhand -20.684 -25.7503
rfingers 7.12502
rthumb 5.67949 -55.6542
lclavicle 7.8023e-015 -6.36111e-015
lhumerus -42.7969 7.98179 77.4008
lradius 36.1518
lwrist -5.54999
lhand -24.138 29.6218
lfingers 7.12502
lthumb 2.34407 59.5887
rfemur 0.865089 15.3661 41.2558
rtibia -7.30582
rfoot -23.4201 -26.6583
rtoes -17.068
lfemur -43.3557 -0.107426 -12.3649
ltibia 40.7438
lfoot 5.35791 33.2317
ltoes -68.3534
70
root -29.3959 15.8142 -3.0183 -123.328 76.8362 -135.462
lowerback 9.41701 0.93479 8.11992
upperback -8.92992 3.65237 4.60194
thorax -15.22 1.33527 -0.21964
lowerneck -21.4906 -5.22324 -3.54994
upperneck 33.077 -3.82228 -4.70301
head 15.1664 -2.48241 -2.01674
rclavicle -2.03754e-015 -3.18055e-015
rhumerus -42.9338 18.7891 -77.8801
rradius 31.806
rwrist -11.7208
rhand -24.8839 -21.3302
rfingers 7.12502
rthumb 1.62373 -51.3037
lclavicle -2.03754e-015 -3.18055e-015
lhumerus -43.5857 8.10997 77.3933
lradius 35.8677
lwrist -6.42324
lhand -24.1075 29.2218
lfingers 7.12502
lthumb 2.37356 59.1883
rfemur 2.47091 16.3977 42.1261
rtibia -8.26403
rfoot -26.7221 -27.0822
rtoes -11.762
lfemur -44.0239 -1.68354 -10.6646
ltibia 34.4854
lfoot 2.75375 31.6022
ltoes -69.3573
